<svg height="512pt" viewBox="0 -46 512 512" width="512pt" xmlns="http://www.w3.org/2000/svg"><path d="m442.40625 115.808594c25.53125 25.519531 39.59375 59.402344 39.59375 95.40625 0 36.007812-14.0625 69.890625-39.59375 95.40625l21.210938 21.210937c31.199218-31.1875 48.382812-72.597656 48.382812-116.617187 0-44.015625-17.183594-85.429688-48.382812-116.613282zm0 0"/><path d="m421.210938 285.425781c19.847656-19.835937 30.789062-46.1875 30.789062-74.210937 0-28.019532-10.941406-54.375-30.789062-74.207032l-21.214844 21.210938c14.195312 14.179688 22.003906 33.003906 22.003906 52.996094 0 19.996094-7.808594 38.820312-22.003906 53zm0 0"/><path d="m378.800781 243.046875c8.511719-8.480469 13.199219-19.789063 13.199219-31.832031 0-12.039063-4.6875-23.347656-13.199219-31.828125l-21.179687 21.238281c2.824218 2.8125 4.378906 6.578125 4.378906 10.589844 0 4.015625-1.554688 7.777344-4.378906 10.59375zm0 0"/><path d="m0 136.214844h121v150h-121zm0 0"/><path d="m332 0-181 122.898438v176.34375l181 119.996093zm0 0"/></svg>